# xmcd
#
# Track frame offsets: 
#        150
#        12317
#        31422
#        47404
#        61996
#        81672
#        95446
#        109731
#        127945
#        142786
#        155554
#        175184
#
# Disc length: 2552 seconds
#
# Revision: 0
# Processed by: cddbd v1.5.2PL0 Copyright (c) Steve Scherf et al.
# Submitted via: ExactAudioCopy v0.95b4
#
DISCID=9409f60c
DTITLE=Darcy Perry and Craig Bracken - Too Many Hard Miles
DYEAR=2007
DGENRE=Blues
TTITLE0=It's All Downhill From Here
TTITLE1=I Love You Son
TTITLE2=Sweet Natalie
TTITLE3=One More Bro For The Road
TTITLE4=To Many Hard Miles
TTITLE5=Jade's Song
TTITLE6=Peddler's Blues
TTITLE7=Devil's Grip
TTITLE8=Lonely Girl
TTITLE9=This Ain't A Love Song
TTITLE10=Annaliesa
TTITLE11=Too Many Hard Miles (reprise)
EXTD=
EXTT0=
EXTT1=
EXTT2=
EXTT3=
EXTT4=
EXTT5=
EXTT6=
EXTT7=
EXTT8=
EXTT9=
EXTT10=
EXTT11=
PLAYORDER=
